# xmcd
#
# Track frame offsets:
# 150
# 11918
# 23505
# 37523
# 48377
# 59080
# 70720
# 82790
# 92009
# 106310
# 115870
# 127029
# 137156
# 148670
# 163924
# 177232
# 191015
# 205535
# 218863
# 234218
# 244743
# 257485
# 269510
#
# Disc length: 3746 seconds
#
#
# Revision: 2
# Processed by: cddbd v1.5.2PL0 Copyright (c) Steve Scherf et al.
# Submitted via: FreeRIP 2.96 
#
DISCID=3d0ea017
DTITLE=Daniel O'Donnell - Welcome To My World
DYEAR=2004
DGENRE=Country
TTITLE0=Welcome To My World
TTITLE1=Anna Marie
TTITLE2=I Love You Because
TTITLE3=When Two Worlds Collide
TTITLE4=Am I Losing You
TTITLE5=Adios Amigo
TTITLE6=How Can I Write On Paper
TTITLE7=I Won't Forget You
TTITLE8=Guilty
TTITLE9=There's A Heartache Following Me
TTITLE10=He'll Have To Go
TTITLE11=It Hurts So Much
TTITLE12=Moonlight And Roses
TTITLE13=Blueside Of Lonesome
TTITLE14=This World Is Not My Home
TTITLE15=Rosa Rio
TTITLE16=Distant Drums
TTITLE17=Four Walls
TTITLE18=Don't Let Me Cross Over
TTITLE19=Is It Really Over
TTITLE20=I Missed Me
TTITLE21=Not Until The Next Time
TTITLE22=You're The Only Good Thing
EXTD=
EXTT0=
EXTT1=
EXTT2=
EXTT3=
EXTT4=
EXTT5=
EXTT6=
EXTT7=
EXTT8=
EXTT9=
EXTT10=
EXTT11=
EXTT12=
EXTT13=
EXTT14=
EXTT15=
EXTT16=
EXTT17=
EXTT18=
EXTT19=
EXTT20=
EXTT21=
EXTT22=
PLAYORDER=
